<?xml version="1.0" encoding="utf-8"?>
<svg version="1.1" xmlns:xlink="http://www.w3.org/1999/xlink" width="15px" height="40px" xmlns="http://www.w3.org/2000/svg">
  <g transform="matrix(1 0 0 1 -39 -26 )">
    <path d="M 13.318385650224215 30.539772727272727  C 13.744394618834082 30.899621212121207  13.957399103139014 31.32575757575757  13.957399103139014 31.818181818181817  L 13.957399103139014 38.18181818181819  C 13.957399103139014 38.67424242424242  13.744394618834082 39.10037878787878  13.318385650224215 39.46022727272727  C 12.892376681614351 39.820075757575765  12.387892376681616 40  11.804932735426009 40  L 3.195067264573991 40  C 2.612107623318386 40  2.1076233183856505 39.820075757575765  1.6816143497757847 39.46022727272727  C 1.2556053811659196 39.10037878787878  1.0426008968609866 38.67424242424242  1.0426008968609866 38.18181818181819  L 1.0426008968609866 31.818181818181817  C 1.0426008968609866 31.32575757575757  1.2556053811659196 30.899621212121207  1.6816143497757847 30.539772727272727  C 2.1076233183856505 30.17992424242424  2.612107623318386 30  3.195067264573991 30  L 11.804932735426009 30  C 12.387892376681616 30  12.892376681614351 30.17992424242424  13.318385650224215 30.539772727272727  Z M 14.37780269058296 0.5397727272727293  C 14.792600896860987 0.8996212121212066  14.988789237668165 1.3257575757575735  14.966367713004484 1.8181818181818166  L 14.024663677130045 23.636363636363633  C 14.00224215246637 24.128787878787875  13.77242152466368 24.55492424242424  13.335201793721973 24.914772727272727  C 12.89798206278027 25.27462121212121  12.387892376681616 25.454545454545453  11.804932735426009 25.454545454545453  L 3.195067264573991 25.454545454545453  C 2.612107623318386 25.454545454545453  2.1020179372197307 25.27462121212121  1.6647982062780269 24.914772727272727  C 1.2275784753363228 24.55492424242424  0.9977578475336325 24.128787878787875  0.9753363228699551 23.636363636363633  L 0.033632286995515695 1.8181818181818166  C 0.011210762331838884 1.3257575757575735  0.2073991031390136 0.8996212121212066  0.6221973094170404 0.5397727272727293  C 1.0369955156950674 0.17992424242423866  1.535874439461884 0  2.118834080717489 0  L 12.881165919282513 0  C 13.464125560538118 0  13.963004484304935 0.17992424242423866  14.37780269058296 0.5397727272727293  Z " fill-rule="nonzero" fill="#169bd5" stroke="none" transform="matrix(1 0 0 1 39 26 )" />
  </g>
</svg>