<?xml version="1.0" encoding="utf-8"?>
<svg version="1.1" xmlns:xlink="http://www.w3.org/1999/xlink" width="287px" height="55px" xmlns="http://www.w3.org/2000/svg">
  <g transform="matrix(1 0 0 1 -1263 -590 )">
    <path d="M 1263.5 618.27950310559  C 1263.5 618.27950310559  1263.5 595  1263.5 595  C 1263.5 592.5147186257615  1265.5147186257614 590.5  1268 590.5  C 1268 590.5  1545 590.5  1545 590.5  C 1547.4852813742386 590.5  1549.5 592.5147186257615  1549.5 595  C 1549.5 595  1549.5 618.27950310559  1549.5 618.27950310559  C 1549.5 620.7647844798287  1547.4852813742386 622.77950310559  1545 622.77950310559  C 1545 622.77950310559  1367.4542898316604 622.77950310559  1367.4542898316604 622.77950310559  C 1367.4542898316604 622.77950310559  1303.8318516395893 642.6661426942567  1303.8318516395893 642.6661426942567  C 1303.8318516395893 642.6661426942567  1338.2740738187556 622.77950310559  1338.2740738187556 622.77950310559  C 1338.2740738187556 622.77950310559  1268 622.77950310559  1268 622.77950310559  C 1265.5147186257614 622.77950310559  1263.5 620.7647844798287  1263.5 618.27950310559  Z " fill-rule="nonzero" fill="#ffffff" stroke="none" />
    <path d="M 1263 618.27950310559  C 1263 618.27950310559  1263 595  1263 595  C 1263 592.238576250846  1265.238576250846 590  1268 590  C 1268 590  1545 590  1545 590  C 1547.761423749154 590  1550 592.238576250846  1550 595  C 1550 595  1550 618.27950310559  1550 618.27950310559  C 1550 621.040926854744  1547.761423749154 623.27950310559  1545 623.27950310559  C 1545 623.27950310559  1367.5306122448978 623.27950310559  1367.5306122448978 623.27950310559  C 1367.5306122448978 623.27950310559  1299.6734693877552 644.4897959183675  1299.6734693877552 644.4897959183675  C 1299.6734693877552 644.4897959183675  1336.408163265306 623.27950310559  1336.408163265306 623.27950310559  C 1336.408163265306 623.27950310559  1268 623.27950310559  1268 623.27950310559  C 1265.238576250846 623.27950310559  1263 621.040926854744  1263 618.27950310559  Z M 1264 618.27950310559  C 1264 620.4886421049132  1265.7908610006768 622.27950310559  1268 622.27950310559  C 1268 622.27950310559  1340.1399843722052 622.27950310559  1340.1399843722052 622.27950310559  C 1340.1399843722052 622.27950310559  1307.9902338914235 640.8424894701459  1307.9902338914235 640.8424894701459  C 1307.9902338914235 640.8424894701459  1367.377967418423 622.27950310559  1367.377967418423 622.27950310559  C 1367.377967418423 622.27950310559  1545 622.27950310559  1545 622.27950310559  C 1547.2091389993232 622.27950310559  1549 620.4886421049132  1549 618.27950310559  C 1549 618.27950310559  1549 595  1549 595  C 1549 592.7908610006768  1547.2091389993232 591  1545 591  C 1545 591  1268 591  1268 591  C 1265.7908610006768 591  1264 592.7908610006768  1264 595  C 1264 595  1264 618.27950310559  1264 618.27950310559  Z " fill-rule="nonzero" fill="#d7d7d7" stroke="none" />
  </g>
</svg>