<?xml version="1.0" encoding="utf-8"?>
<svg version="1.1" xmlns:xlink="http://www.w3.org/1999/xlink" width="26px" height="25px" xmlns="http://www.w3.org/2000/svg">
  <g transform="matrix(1 0 0 1 -1263 -636 )">
    <path d="M 15.014322916666668 20.686848958333336  C 15.115885416666668 20.589192708333336  15.166666666666668 20.46440972222222  15.166666666666668 20.3125  L 15.166666666666668 17.1875  C 15.166666666666668 17.035590277777775  15.115885416666668 16.910807291666668  15.014322916666668 16.813151041666668  C 14.912760416666668 16.715494791666668  14.782986111111112 16.666666666666668  14.625 16.666666666666668  L 11.375 16.666666666666668  C 11.21701388888889 16.666666666666668  11.087239583333334 16.715494791666668  10.985677083333334 16.813151041666668  C 10.884114583333334 16.910807291666668  10.833333333333334 17.035590277777775  10.833333333333334 17.1875  L 10.833333333333334 20.3125  C 10.833333333333334 20.46440972222222  10.884114583333334 20.589192708333336  10.985677083333334 20.686848958333336  C 11.087239583333334 20.784505208333336  11.21701388888889 20.833333333333336  11.375 20.833333333333336  L 14.625 20.833333333333336  C 14.782986111111112 20.833333333333336  14.912760416666668 20.784505208333336  15.014322916666668 20.686848958333336  Z M 19.288411458333332 10.693359375  C 19.429470486111114 10.291883680555555  19.5 9.852430555555555  19.5 9.375  C 19.5 8.420138888888888  19.186848958333332 7.535807291666666  18.560546875 6.722005208333334  C 17.934244791666668 5.908203125  17.15277777777778 5.278862847222221  16.216145833333332 4.833984375  C 15.27951388888889 4.389105902777776  14.3203125 4.166666666666666  13.338541666666668 4.166666666666666  C 10.596354166666666 4.166666666666666  8.503038194444445 5.322265625  7.05859375 7.633463541666666  C 6.889322916666668 7.893880208333334  6.934461805555556 8.121744791666666  7.194010416666666 8.317057291666666  L 9.428385416666666 9.944661458333334  C 9.507378472222223 10.009765625  9.614583333333334 10.042317708333334  9.75 10.042317708333334  C 9.930555555555557 10.042317708333334  10.071614583333334 9.977213541666666  10.173177083333334 9.847005208333334  C 10.77126736111111 9.10915798611111  11.256510416666666 8.610026041666666  11.62890625 8.349609375  C 12.012586805555557 8.089192708333334  12.49782986111111 7.958984375  13.084635416666668 7.958984375  C 13.626302083333332 7.958984375  14.108723958333332 8.100043402777777  14.531901041666668 8.382161458333334  C 14.955078125 8.664279513888888  15.166666666666668 8.984374999999996  15.166666666666668 9.342447916666666  C 15.166666666666668 9.754774305555555  15.053819444444445 10.08572048611111  14.828125 10.335286458333334  C 14.602430555555557 10.584852430555555  14.21875 10.828993055555555  13.677083333333332 11.067708333333334  C 12.966145833333334 11.371527777777777  12.314453125 11.8408203125  11.722005208333334 12.4755859375  C 11.129557291666666 13.1103515625  10.833333333333334 13.79123263888889  10.833333333333334 14.518229166666668  L 10.833333333333334 15.104166666666668  C 10.833333333333334 15.25607638888889  10.884114583333334 15.380859375  10.985677083333334 15.478515625  C 11.087239583333334 15.576171875  11.21701388888889 15.625  11.375 15.625  L 14.625 15.625  C 14.782986111111112 15.625  14.912760416666668 15.576171875  15.014322916666668 15.478515625  C 15.115885416666668 15.380859375  15.166666666666668 15.25607638888889  15.166666666666668 15.104166666666668  C 15.166666666666668 14.898003472222221  15.287977430555557 14.629448784722221  15.530598958333332 14.298502604166668  C 15.773220486111112 13.96755642361111  16.080729166666668 13.69900173611111  16.453125 13.492838541666668  C 16.814236111111114 13.297526041666668  17.090711805555557 13.142903645833332  17.282552083333332 13.028971354166668  C 17.474392361111114 12.9150390625  17.73394097222222 12.725151909722221  18.061197916666668 12.459309895833334  C 18.388454861111114 12.193467881944445  18.639539930555557 11.933051215277777  18.814453125 11.678059895833334  C 18.989366319444446 11.423068576388888  19.147352430555557 11.094835069444445  19.288411458333332 10.693359375  Z M 24.256510416666668 6.2255859375  C 25.418836805555554 8.140733506944443  26 10.232204861111107  26 12.5  C 26 14.76779513888889  25.418836805555554 16.859266493055554  24.256510416666668 18.7744140625  C 23.09418402777778 20.689561631944446  21.51714409722222 22.205946180555554  19.525390625 23.323567708333336  C 17.53363715277778 24.441189236111114  15.358506944444445 25  13 25  C 10.641493055555557 25  8.466362847222223 24.441189236111114  6.474609375 23.323567708333336  C 4.482855902777779 22.205946180555554  2.9058159722222223 20.689561631944446  1.7434895833333335 18.7744140625  C 0.5811631944444444 16.859266493055554  0 14.76779513888889  0 12.5  C 0 10.232204861111107  0.5811631944444444 8.140733506944443  1.7434895833333335 6.2255859375  C 2.9058159722222223 4.310438368055555  4.482855902777779 2.794053819444442  6.474609375 1.6764322916666656  C 8.466362847222223 0.5588107638888867  10.641493055555557 0  13 0  C 15.358506944444445 0  17.53363715277778 0.5588107638888867  19.525390625 1.6764322916666656  C 21.51714409722222 2.794053819444442  23.09418402777778 4.310438368055555  24.256510416666668 6.2255859375  Z " fill-rule="nonzero" fill="#1e98d7" stroke="none" transform="matrix(1 0 0 1 1263 636 )" />
  </g>
</svg>