<?xml version="1.0" encoding="utf-8"?>
<svg version="1.1" xmlns:xlink="http://www.w3.org/1999/xlink" width="24px" height="24px" xmlns="http://www.w3.org/2000/svg">
  <defs>
    <filter x="2066px" y="185px" width="24px" height="24px" filterUnits="userSpaceOnUse" id="filter3">
      <feOffset dx="1" dy="1" in="SourceAlpha" result="shadowOffsetInner" />
      <feGaussianBlur stdDeviation="2.5" in="shadowOffsetInner" result="shadowGaussian" />
      <feComposite in2="shadowGaussian" operator="atop" in="SourceAlpha" result="shadowComposite" />
      <feColorMatrix type="matrix" values="0 0 0 0 0  0 0 0 0 0  0 0 0 0 0  0 0 0 0.6980392156862745 0  " in="shadowComposite" />
    </filter>
    <g id="widget4">
      <path d="M 2077 189  C 2080.92 189  2084 192.08  2084 196  C 2084 199.92  2080.92 203  2077 203  C 2073.08 203  2070 199.92  2070 196  C 2070 192.08  2073.08 189  2077 189  Z " fill-rule="nonzero" fill="#00c2ff" stroke="none" />
      <path d="M 2077 189.5  C 2080.64 189.5  2083.5 192.36  2083.5 196  C 2083.5 199.64  2080.64 202.5  2077 202.5  C 2073.36 202.5  2070.5 199.64  2070.5 196  C 2070.5 192.36  2073.36 189.5  2077 189.5  Z " stroke-width="1" stroke="#ffffff" fill="none" />
    </g>
  </defs>
  <g transform="matrix(1 0 0 1 -2066 -185 )">
    <use xlink:href="#widget4" filter="url(#filter3)" />
    <use xlink:href="#widget4" />
  </g>
</svg>