<?xml version="1.0" encoding="utf-8"?>
<svg version="1.1" xmlns:xlink="http://www.w3.org/1999/xlink" width="157px" height="55px" xmlns="http://www.w3.org/2000/svg">
  <g transform="matrix(1 0 0 1 -2063 -135 )">
    <path d="M 2063.5 163.27950310559004  C 2063.5 163.27950310559004  2063.5 140  2063.5 140  C 2063.5 137.51471862576142  2065.5147186257614 135.5  2068 135.5  C 2068 135.5  2215 135.5  2215 135.5  C 2217.4852813742386 135.5  2219.5 137.51471862576142  2219.5 140  C 2219.5 140  2219.5 163.27950310559004  2219.5 163.27950310559004  C 2219.5 165.76478447982862  2217.4852813742386 167.77950310559004  2215 167.77950310559004  C 2215 167.77950310559004  2121.541364103224 167.77950310559004  2121.541364103224 167.77950310559004  C 2121.541364103224 167.77950310559004  2085.311922856345 187.68313993023352  2085.311922856345 187.68313993023352  C 2085.311922856345 187.68313993023352  2102.7734602366136 167.77950310559004  2102.7734602366136 167.77950310559004  C 2102.7734602366136 167.77950310559004  2068 167.77950310559004  2068 167.77950310559004  C 2065.5147186257614 167.77950310559004  2063.5 165.76478447982862  2063.5 163.27950310559004  Z " fill-rule="nonzero" fill="#ffffff" stroke="none" />
    <path d="M 2063 163.27950310559004  C 2063 163.27950310559004  2063 140  2063 140  C 2063 137.23857625084602  2065.238576250846 135  2068 135  C 2068 135  2215 135  2215 135  C 2217.761423749154 135  2220 137.23857625084602  2220 140  C 2220 140  2220 163.27950310559004  2220 163.27950310559004  C 2220 166.04092685474401  2217.761423749154 168.27950310559004  2215 168.27950310559004  C 2215 168.27950310559004  2121.669665078575 168.27950310559004  2121.669665078575 168.27950310559004  C 2121.669665078575 168.27950310559004  2083.0617933584585 189.48979591836746  2083.0617933584585 189.48979591836746  C 2083.0617933584585 189.48979591836746  2101.669665078575 168.27950310559004  2101.669665078575 168.27950310559004  C 2101.669665078575 168.27950310559004  2068 168.27950310559004  2068 168.27950310559004  C 2065.238576250846 168.27950310559004  2063 166.04092685474401  2063 163.27950310559004  Z M 2064 163.27950310559004  C 2064 165.48864210491323  2065.7908610006766 167.27950310559004  2068 167.27950310559004  C 2068 167.27950310559004  2103.877255394652 167.27950310559004  2103.877255394652 167.27950310559004  C 2103.877255394652 167.27950310559004  2087.5620523542316 185.87648394209955  2087.5620523542316 185.87648394209955  C 2087.5620523542316 185.87648394209955  2121.4130631278736 167.27950310559004  2121.4130631278736 167.27950310559004  C 2121.4130631278736 167.27950310559004  2215 167.27950310559004  2215 167.27950310559004  C 2217.2091389993234 167.27950310559004  2219 165.48864210491323  2219 163.27950310559004  C 2219 163.27950310559004  2219 140  2219 140  C 2219 137.7908610006768  2217.2091389993234 136  2215 136  C 2215 136  2068 136  2068 136  C 2065.7908610006766 136  2064 137.7908610006768  2064 140  C 2064 140  2064 163.27950310559004  2064 163.27950310559004  Z " fill-rule="nonzero" fill="#d7d7d7" stroke="none" />
  </g>
</svg>