<?xml version="1.0" encoding="utf-8"?>
<svg version="1.1" xmlns:xlink="http://www.w3.org/1999/xlink" width="296px" height="64px" xmlns="http://www.w3.org/2000/svg">
  <g transform="matrix(1 0 0 1 -780 -530 )">
    <path d="M 780.5 563.7252399774138  C 780.5 563.7252399774138  780.5 535  780.5 535  C 780.5 532.5147186257615  782.5147186257615 530.5  785 530.5  C 785 530.5  1071 530.5  1071 530.5  C 1073.4852813742386 530.5  1075.5 532.5147186257615  1075.5 535  C 1075.5 535  1075.5 563.7252399774138  1075.5 563.7252399774138  C 1075.5 566.2105213516525  1073.4852813742386 568.2252399774138  1071 568.2252399774138  C 1071 568.2252399774138  887.7229932374914 568.2252399774138  887.7229932374914 568.2252399774138  C 887.7229932374914 568.2252399774138  821.5952046364682 591.5459927111991  821.5952046364682 591.5459927111991  C 821.5952046364682 591.5459927111991  857.3937067362704 568.2252399774138  857.3937067362704 568.2252399774138  C 857.3937067362704 568.2252399774138  785 568.2252399774138  785 568.2252399774138  C 782.5147186257615 568.2252399774138  780.5 566.2105213516525  780.5 563.7252399774138  Z " fill-rule="nonzero" fill="#ffffff" stroke="none" />
    <path d="M 780 563.7252399774138  C 780 563.7252399774138  780 535  780 535  C 780 532.238576250846  782.238576250846 530  785 530  C 785 530  1071 530  1071 530  C 1073.761423749154 530  1076 532.238576250846  1076 535  C 1076 535  1076 563.7252399774138  1076 563.7252399774138  C 1076 566.4866637265678  1073.761423749154 568.7252399774138  1071 568.7252399774138  C 1071 568.7252399774138  887.8085756950863 568.7252399774138  887.8085756950863 568.7252399774138  C 887.8085756950863 568.7252399774138  817.8235084974756 593.4063079777367  817.8235084974756 593.4063079777367  C 817.8235084974756 593.4063079777367  855.710161416483 568.7252399774138  855.710161416483 568.7252399774138  C 855.710161416483 568.7252399774138  785 568.7252399774138  785 568.7252399774138  C 782.238576250846 568.7252399774138  780 566.4866637265678  780 563.7252399774138  Z M 781 563.7252399774138  C 781 565.9343789767371  782.7908610006768 567.7252399774138  785 567.7252399774138  C 785 567.7252399774138  859.0772520560575 567.7252399774138  859.0772520560575 567.7252399774138  C 859.0772520560575 567.7252399774138  825.3669007754607 589.6856774446616  825.3669007754607 589.6856774446616  C 825.3669007754607 589.6856774446616  887.6374107798964 567.7252399774138  887.6374107798964 567.7252399774138  C 887.6374107798964 567.7252399774138  1071 567.7252399774138  1071 567.7252399774138  C 1073.2091389993232 567.7252399774138  1075 565.9343789767371  1075 563.7252399774138  C 1075 563.7252399774138  1075 535  1075 535  C 1075 532.7908610006768  1073.2091389993232 531  1071 531  C 1071 531  785 531  785 531  C 782.7908610006768 531  781 532.7908610006768  781 535  C 781 535  781 563.7252399774138  781 563.7252399774138  Z " fill-rule="nonzero" fill="#d7d7d7" stroke="none" />
  </g>
</svg>