<?xml version="1.0" encoding="utf-8"?>
<svg version="1.1" xmlns:xlink="http://www.w3.org/1999/xlink" width="50px" height="50px" xmlns="http://www.w3.org/2000/svg">
  <g transform="matrix(1 0 0 1 -17 -15 )">
    <path d="M 12.451171875 3.3528645833333313  C 16.28146701388889 1.1176215277777735  20.464409722222225 0  25 0  C 29.53559027777778 0  33.718532986111114 1.1176215277777735  37.548828125 3.3528645833333313  C 41.37912326388889 5.588107638888884  44.411892361111114 8.62087673611111  46.64713541666667 12.451171875  C 48.882378472222214 16.281467013888886  50 20.464409722222214  50 25  C 50 29.53559027777778  48.882378472222214 33.71853298611111  46.64713541666667 37.548828125  C 44.411892361111114 41.37912326388889  41.37912326388889 44.41189236111111  37.548828125 46.64713541666667  C 33.718532986111114 48.88237847222223  29.53559027777778 50  25 50  C 20.464409722222225 50  16.28146701388889 48.88237847222223  12.451171875 46.64713541666667  C 8.620876736111112 44.41189236111111  5.588107638888889 41.37912326388889  3.3528645833333335 37.548828125  C 1.1176215277777777 33.71853298611111  0 29.53559027777778  0 25  C 0 20.464409722222214  1.1176215277777777 16.281467013888886  3.3528645833333335 12.451171875  C 5.588107638888889 8.62087673611111  8.620876736111112 5.588107638888884  12.451171875 3.3528645833333313  Z M 28.873697916666668 41.357421875  C 29.069010416666668 41.15125868055556  29.166666666666668 40.89626736111111  29.166666666666668 40.59244791666667  L 29.166666666666668 34.407552083333336  C 29.166666666666668 34.103732638888886  29.069010416666668 33.84874131944444  28.873697916666668 33.642578125  C 28.678385416666668 33.43641493055556  28.43967013888889 33.333333333333336  28.157552083333332 33.333333333333336  L 21.907552083333336 33.333333333333336  C 21.62543402777778 33.333333333333336  21.375868055555557 33.44184027777778  21.158854166666664 33.658854166666664  C 20.94184027777778 33.87586805555555  20.833333333333336 34.12543402777778  20.833333333333336 34.407552083333336  L 20.833333333333336 40.59244791666667  C 20.833333333333336 40.87456597222223  20.94184027777778 41.12413194444444  21.158854166666664 41.34114583333333  C 21.375868055555557 41.55815972222223  21.62543402777778 41.66666666666667  21.907552083333336 41.66666666666667  L 28.157552083333332 41.66666666666667  C 28.43967013888889 41.66666666666667  28.678385416666668 41.56358506944444  28.873697916666668 41.357421875  Z M 28.759765625 29.964192708333336  C 28.965928819444446 29.801432291666664  29.07986111111111 29.611545138888886  29.1015625 29.39453125  L 29.6875 9.1796875  C 29.687500000000007 8.919270833333332  29.578993055555557 8.723958333333332  29.361979166666668 8.59375  C 29.14496527777778 8.420138888888884  28.88454861111111 8.333333333333332  28.580729166666668 8.333333333333332  L 21.419270833333336 8.333333333333332  C 21.115451388888893 8.333333333333332  20.855034722222225 8.420138888888884  20.638020833333336 8.59375  C 20.421006944444446 8.723958333333332  20.3125 8.919270833333332  20.3125 9.1796875  L 20.865885416666664 29.39453125  C 20.865885416666664 29.611545138888886  20.974392361111114 29.801432291666664  21.19140625 29.964192708333336  C 21.408420138888893 30.126953125  21.668836805555557 30.208333333333336  21.97265625 30.208333333333336  L 27.994791666666668 30.208333333333336  C 28.29861111111111 30.208333333333336  28.553602430555557 30.126953125  28.759765625 29.964192708333336  Z " fill-rule="nonzero" fill="#169bd5" stroke="none" transform="matrix(1 0 0 1 17 15 )" />
  </g>
</svg>