<?xml version="1.0" encoding="utf-8"?>
<svg version="1.1" xmlns:xlink="http://www.w3.org/1999/xlink" width="11px" height="11px" xmlns="http://www.w3.org/2000/svg">
  <g transform="matrix(1 0 0 1 -552 -545 )">
    <path d="M 2.7392578125 0.7376302083333329  C 3.581922743055556 0.24587673611111016  4.502170138888889 0  5.5 0  C 6.497829861111112 0  7.4180772569444455 0.24587673611111016  8.2607421875 0.7376302083333329  C 9.103407118055555 1.2293836805555545  9.770616319444446 1.8965928819444442  10.262369791666668 2.7392578125  C 10.754123263888888 3.5819227430555545  11 4.5021701388888875  11 5.5  C 11 6.497829861111112  10.754123263888888 7.418077256944443  10.262369791666668 8.2607421875  C 9.770616319444446 9.103407118055555  9.103407118055555 9.770616319444445  8.2607421875 10.262369791666668  C 7.4180772569444455 10.75412326388889  6.497829861111112 11  5.5 11  C 4.502170138888889 11  3.581922743055556 10.75412326388889  2.7392578125 10.262369791666668  C 1.8965928819444446 9.770616319444445  1.2293836805555558 9.103407118055555  0.7376302083333334 8.2607421875  C 0.24587673611111108 7.418077256944443  0 6.497829861111112  0 5.5  C 0 4.5021701388888875  0.24587673611111108 3.5819227430555545  0.7376302083333334 2.7392578125  C 1.2293836805555558 1.8965928819444442  1.8965928819444446 1.2293836805555545  2.7392578125 0.7376302083333329  Z M 6.352213541666667 9.0986328125  C 6.395182291666667 9.053276909722223  6.416666666666667 8.997178819444445  6.416666666666667 8.930338541666668  L 6.416666666666667 7.569661458333334  C 6.416666666666667 7.5028211805555545  6.395182291666667 7.446723090277777  6.352213541666667 7.4013671875  C 6.309244791666667 7.356011284722223  6.256727430555555 7.333333333333334  6.194661458333333 7.333333333333334  L 4.819661458333334 7.333333333333334  C 4.757595486111112 7.333333333333334  4.702690972222223 7.357204861111112  4.654947916666666 7.404947916666666  C 4.607204861111112 7.4526909722222205  4.583333333333334 7.507595486111112  4.583333333333334 7.569661458333334  L 4.583333333333334 8.930338541666668  C 4.583333333333334 8.99240451388889  4.607204861111112 9.047309027777777  4.654947916666666 9.095052083333332  C 4.702690972222223 9.14279513888889  4.757595486111112 9.166666666666668  4.819661458333334 9.166666666666668  L 6.194661458333333 9.166666666666668  C 6.256727430555555 9.166666666666668  6.309244791666667 9.143988715277777  6.352213541666667 9.0986328125  Z M 6.3271484375 6.592122395833334  C 6.372504340277779 6.556315104166666  6.397569444444445 6.5145399305555545  6.40234375 6.466796875  L 6.53125 2.01953125  C 6.531250000000001 1.962239583333333  6.507378472222223 1.919270833333333  6.459635416666667 1.890625  C 6.411892361111112 1.8524305555555545  6.354600694444445 1.833333333333333  6.287760416666667 1.833333333333333  L 4.712239583333334 1.833333333333333  C 4.645399305555556 1.833333333333333  4.588107638888889 1.8524305555555545  4.540364583333334 1.890625  C 4.492621527777778 1.919270833333333  4.46875 1.962239583333333  4.46875 2.01953125  L 4.590494791666666 6.466796875  C 4.590494791666666 6.5145399305555545  4.614366319444445 6.556315104166666  4.662109375 6.592122395833334  C 4.709852430555556 6.6279296875  4.767144097222223 6.645833333333334  4.833984375 6.645833333333334  L 6.158854166666667 6.645833333333334  C 6.225694444444445 6.645833333333334  6.281792534722223 6.6279296875  6.3271484375 6.592122395833334  Z " fill-rule="nonzero" fill="#1a83be" stroke="none" transform="matrix(1 0 0 1 552 545 )" />
  </g>
</svg>