<?xml version="1.0" encoding="utf-8"?>
<svg version="1.1" xmlns:xlink="http://www.w3.org/1999/xlink" width="37px" height="28px" xmlns="http://www.w3.org/2000/svg">
  <g transform="matrix(1 0 0 1 -20 -26 )">
    <path d="M 36.3316129032258 3.8653198653198664  C 36.77720430107527 4.305274971941637  37.00000000000001 4.839506172839506  37 5.468013468013468  C 37.00000000000001 6.096520763187427  36.77720430107527 6.630751964085295  36.3316129032258 7.070707070707069  L 19.049032258064518 24.134680134680135  L 15.80258064516129 27.34006734006734  C 15.35698924731183 27.780022446689113  14.815913978494626 28  14.179354838709678 28  C 13.542795698924731 28  13.001720430107529 27.780022446689113  12.556129032258065 27.34006734006734  L 9.309677419354838 24.134680134680135  L 0.6683870967741936 15.602693602693606  C 0.22279569892473142 15.162738496071828  0 14.628507295173959  0 14  C 0 13.371492704826037  0.22279569892473142 12.83726150392817  0.6683870967741936 12.397306397306398  L 3.914838709677419 9.191919191919192  C 4.360430107526882 8.751964085297418  4.901505376344087 8.53198653198653  5.538064516129032 8.531986531986533  C 6.17462365591398 8.53198653198653  6.715698924731183 8.751964085297418  7.161290322580645 9.191919191919192  L 14.179354838709678 16.144781144781142  L 29.838709677419352 0.65993265993266  C 30.28430107526882 0.21997755331088564  30.825376344086028 0  31.461935483870967 0  C 32.09849462365592 0  32.63956989247312 0.21997755331088564  33.08516129032258 0.65993265993266  L 36.3316129032258 3.8653198653198664  Z " fill-rule="nonzero" fill="#169bd5" stroke="none" transform="matrix(1 0 0 1 20 26 )" />
  </g>
</svg>